<svg id="Capa_1" enable-background="new 0 0 512 512" height="512" viewBox="0 0 512 512" width="512" xmlns="http://www.w3.org/2000/svg"><g><path d="m370.882 467.91c-35.028 19.031-74.753 29.09-114.882 29.09-64.374 0-124.894-25.068-170.413-70.587s-70.587-106.039-70.587-170.413c0-63.676 24.615-123.731 69.31-169.103l-10.687-10.526c-47.477 48.195-73.623 111.989-73.623 179.629 0 68.38 26.629 132.667 74.98 181.02 48.353 48.351 112.64 74.98 181.02 74.98 41.98 0 83.549-10.367 120.354-30h23.146v-15h-26.943z"/><path d="m414.5 467h15v15h-15z"/><path d="m437.02 74.98c-48.353-48.351-112.64-74.98-181.02-74.98-63.353 0-124.158 23.33-171.215 65.693l10.036 11.148c44.298-39.879 101.539-61.841 161.179-61.841 64.374 0 124.894 25.068 170.413 70.587s70.587 106.039 70.587 170.413c0 40.128-10.059 79.854-29.09 114.882l-.91 1.675v94.443h-22.5v15h37.5v-105.646c19.633-36.806 30-78.375 30-120.354 0-68.38-26.629-132.667-74.98-181.02z"/><path d="m368.499 67.5h15v15h-15z"/><path d="m338.499 52.5h15v15h-15z"/><path d="m282.25 121c0-20.678-16.822-37.5-37.5-37.5s-37.5 16.822-37.5 37.5c0 20.677 16.822 37.5 37.5 37.5s37.5-16.822 37.5-37.5zm-60 0c0-12.406 10.093-22.5 22.5-22.5s22.5 10.094 22.5 22.5-10.093 22.5-22.5 22.5-22.5-10.093-22.5-22.5z"/><path d="m203.5 368.499v60h105v-60h-22.5v-194.999h-82.5v60h22.5v134.999zm15-149.999v-30h52.5v194.999h22.5v30h-75v-30h22.5v-164.999z"/></g></svg>